<svg width="40" height="40" viewBox="0 0 40 40" fill="none" xmlns="http://www.w3.org/2000/svg">
<rect width="40" height="40" rx="8" fill="#73E1FF"/>
<path d="M22.666 6.66666V12C22.666 12.7072 22.947 13.3855 23.4471 13.8856C23.9472 14.3857 24.6254 14.6667 25.3327 14.6667H30.666" stroke="#04637D" stroke-width="2" stroke-linecap="round" stroke-linejoin="round"/>
<path d="M24 28C24 26.9391 23.5786 25.9217 22.8284 25.1716C22.0783 24.4214 21.0609 24 20 24C18.9391 24 17.9217 24.4214 17.1716 25.1716C16.4214 25.9217 16 26.9391 16 28" stroke="#04637D" stroke-width="2" stroke-linecap="round" stroke-linejoin="round"/>
<path d="M24.0007 6.66666H12.0007C11.2934 6.66666 10.6151 6.94761 10.115 7.4477C9.61494 7.9478 9.33398 8.62608 9.33398 9.33332V30.6667C9.33398 31.3739 9.61494 32.0522 10.115 32.5523C10.6151 33.0524 11.2934 33.3333 12.0007 33.3333H28.0007C28.7079 33.3333 29.3862 33.0524 29.8863 32.5523C30.3864 32.0522 30.6673 31.3739 30.6673 30.6667V13.3333L24.0007 6.66666Z" stroke="#04637D" stroke-width="2" stroke-linecap="round" stroke-linejoin="round"/>
<path d="M20.0007 24C21.4734 24 22.6673 22.8061 22.6673 21.3333C22.6673 19.8606 21.4734 18.6667 20.0007 18.6667C18.5279 18.6667 17.334 19.8606 17.334 21.3333C17.334 22.8061 18.5279 24 20.0007 24Z" stroke="#04637D" stroke-width="2" stroke-linecap="round" stroke-linejoin="round"/>
</svg>
